<svg width="20" height="20" viewBox="0 0 20 20" fill="none" xmlns="http://www.w3.org/2000/svg">
<path d="M7 4.74935V18.6104M13 1.11035V15.1104M1 6.82035C1 5.34635 1 4.61035 1.393 4.18035C1.53209 4.02738 1.70129 3.90482 1.89 3.82035C2.422 3.58435 3.121 3.81735 4.519 4.28335C5.586 4.63935 6.119 4.81735 6.659 4.79835C6.8571 4.79184 7.05406 4.76571 7.247 4.72035C7.772 4.59535 8.24 4.28335 9.176 3.66035L10.558 2.73835C11.758 1.93835 12.357 1.53835 13.045 1.44735C13.733 1.35435 14.417 1.58235 15.784 2.03835L16.949 2.42635C17.939 2.75635 18.434 2.92135 18.717 3.31435C19 3.70735 19 4.23035 19 5.27235V13.4014C19 14.8744 19 15.6114 18.607 16.0414C18.4677 16.1936 18.2985 16.3155 18.11 16.3994C17.578 16.6364 16.879 16.4034 15.481 15.9374C14.414 15.5814 13.881 15.4034 13.341 15.4224C13.1429 15.4289 12.9459 15.455 12.753 15.5004C12.228 15.6254 11.76 15.9374 10.824 16.5604L9.442 17.4824C8.242 18.2824 7.643 18.6824 6.955 18.7734C6.267 18.8664 5.583 18.6384 4.216 18.1824L3.051 17.7944C2.061 17.4644 1.566 17.2994 1.283 16.9064C1 16.5134 1 15.9904 1 14.9484V6.82035Z" stroke="#ADADAD" stroke-width="1.5"/>
</svg>
