<svg width="7" height="13" viewBox="0 0 7 13" fill="none" xmlns="http://www.w3.org/2000/svg">
<path d="M6.29252 12.6366C6.38522 12.5291 6.45877 12.4013 6.50895 12.2607C6.55913 12.1201 6.58496 11.9694 6.58496 11.8171C6.58496 11.6649 6.55913 11.5142 6.50895 11.3736C6.45877 11.233 6.38522 11.1052 6.29252 10.9977L2.41252 6.4879L6.29252 1.97809C6.47949 1.76076 6.58454 1.466 6.58454 1.15865C6.58454 0.851301 6.47949 0.556539 6.29252 0.339211C6.10554 0.121881 5.85194 -0.000209808 5.58752 -0.000209808C5.32309 -0.000209808 5.06949 0.121881 4.88252 0.339211L0.292517 5.67427C0.199813 5.7818 0.126266 5.90953 0.0760841 6.05014C0.0259027 6.19075 7.34329e-05 6.34148 7.34329e-05 6.49371C7.34329e-05 6.64594 0.0259027 6.79667 0.0760841 6.93728C0.126266 7.07789 0.199813 7.20561 0.292517 7.31315L4.88252 12.6482C5.26252 13.0899 5.90252 13.0899 6.29252 12.6366Z" fill="#353E4B"/>
</svg>
