<svg width="25" height="25" viewBox="0 0 25 25" fill="none" xmlns="http://www.w3.org/2000/svg">
<path fill-rule="evenodd" clip-rule="evenodd" d="M16.5 9.11035C16.5 10.1712 16.0786 11.1886 15.3284 11.9388C14.5783 12.6889 13.5609 13.1104 12.5 13.1104C11.4391 13.1104 10.4217 12.6889 9.67157 11.9388C8.92143 11.1886 8.5 10.1712 8.5 9.11035C8.5 8.04949 8.92143 7.03207 9.67157 6.28192C10.4217 5.53178 11.4391 5.11035 12.5 5.11035C13.5609 5.11035 14.5783 5.53178 15.3284 6.28192C16.0786 7.03207 16.5 8.04949 16.5 9.11035ZM14.5 9.11035C14.5 9.64078 14.2893 10.1495 13.9142 10.5246C13.5391 10.8996 13.0304 11.1104 12.5 11.1104C11.9696 11.1104 11.4609 10.8996 11.0858 10.5246C10.7107 10.1495 10.5 9.64078 10.5 9.11035C10.5 8.57992 10.7107 8.07121 11.0858 7.69614C11.4609 7.32107 11.9696 7.11035 12.5 7.11035C13.0304 7.11035 13.5391 7.32107 13.9142 7.69614C14.2893 8.07121 14.5 8.57992 14.5 9.11035Z" fill="#9334E9"/>
<path fill-rule="evenodd" clip-rule="evenodd" d="M12.5 1.11035C6.425 1.11035 1.5 6.03535 1.5 12.1104C1.5 18.1854 6.425 23.1104 12.5 23.1104C18.575 23.1104 23.5 18.1854 23.5 12.1104C23.5 6.03535 18.575 1.11035 12.5 1.11035ZM3.5 12.1104C3.5 14.2004 4.213 16.1244 5.408 17.6524C6.24744 16.5505 7.33015 15.6575 8.57164 15.0431C9.81312 14.4287 11.1798 14.1095 12.565 14.1104C13.9324 14.1088 15.2821 14.4194 16.5111 15.0187C17.7402 15.618 18.8162 16.4901 19.657 17.5684C20.5234 16.432 21.1068 15.1056 21.3589 13.6989C21.611 12.2923 21.5244 10.8459 21.1065 9.47934C20.6886 8.11279 19.9512 6.8654 18.9555 5.84039C17.9598 4.81538 16.7343 4.04221 15.3804 3.58486C14.0265 3.12751 12.5832 2.99912 11.1699 3.21032C9.75652 3.42153 8.41379 3.96624 7.25277 4.79941C6.09175 5.63257 5.14581 6.73022 4.49323 8.00155C3.84065 9.27287 3.50018 10.6813 3.5 12.1104ZM12.5 21.1104C10.4339 21.1137 8.43014 20.4029 6.828 19.0984C7.47281 18.175 8.33119 17.4211 9.33008 16.9008C10.329 16.3806 11.4388 16.1094 12.565 16.1104C13.6772 16.1094 14.7735 16.3738 15.763 16.8817C16.7524 17.3895 17.6064 18.1261 18.254 19.0304C16.6395 20.3774 14.6026 21.1136 12.5 21.1104Z" fill="#9334E9"/>
</svg>
