<svg width="14" height="14" viewBox="0 0 14 14" fill="none" xmlns="http://www.w3.org/2000/svg">
<path d="M8.99384 9.99167L6.57301 11.45C6.46607 11.5181 6.35426 11.5472 6.23759 11.5375C6.12093 11.5278 6.01884 11.4889 5.93134 11.4208C5.84384 11.3528 5.77579 11.2678 5.72718 11.1659C5.67857 11.064 5.66884 10.9497 5.69801 10.8229L6.33968 8.06667L4.19593 6.21458C4.09871 6.12708 4.03804 6.02733 4.01393 5.91533C3.98982 5.80333 3.99701 5.69406 4.03551 5.5875C4.07401 5.48094 4.13234 5.39344 4.21051 5.325C4.28868 5.25656 4.39562 5.21281 4.53134 5.19375L7.36051 4.94583L8.45426 2.35C8.50287 2.23333 8.57832 2.14583 8.68059 2.0875C8.78287 2.02917 8.88729 2 8.99384 2C9.1004 2 9.20482 2.02917 9.30709 2.0875C9.40937 2.14583 9.48482 2.23333 9.53343 2.35L10.6272 4.94583L13.4563 5.19375C13.5925 5.21319 13.6994 5.25694 13.7772 5.325C13.855 5.39306 13.9133 5.48056 13.9522 5.5875C13.9911 5.69444 13.9985 5.80392 13.9743 5.91592C13.9502 6.02792 13.8894 6.12747 13.7918 6.21458L11.648 8.06667L12.2897 10.8229C12.3188 10.9493 12.3091 11.0636 12.2605 11.1659C12.2119 11.2682 12.1438 11.3532 12.0563 11.4208C11.9688 11.4885 11.8668 11.5274 11.7501 11.5375C11.6334 11.5476 11.5216 11.5184 11.4147 11.45L8.99384 9.99167Z" fill="#FACC14"/>
</svg>
