<svg width="19" height="18" viewBox="0 0 19 18" fill="none" xmlns="http://www.w3.org/2000/svg">
<path d="M7 13.1104C5.18333 13.1104 3.646 12.481 2.388 11.2224C1.13 9.96369 0.500667 8.42635 0.500001 6.61035C0.499334 4.79435 1.12867 3.25702 2.388 1.99835C3.64733 0.739685 5.18467 0.110352 7 0.110352C8.81533 0.110352 10.353 0.739685 11.613 1.99835C12.873 3.25702 13.502 4.79435 13.5 6.61035C13.5 7.34369 13.3833 8.03535 13.15 8.68535C12.9167 9.33535 12.6 9.91035 12.2 10.4104L17.8 16.0104C17.9833 16.1937 18.075 16.427 18.075 16.7104C18.075 16.9937 17.9833 17.227 17.8 17.4104C17.6167 17.5937 17.3833 17.6854 17.1 17.6854C16.8167 17.6854 16.5833 17.5937 16.4 17.4104L10.8 11.8104C10.3 12.2104 9.725 12.527 9.075 12.7604C8.425 12.9937 7.73333 13.1104 7 13.1104ZM7 11.1104C8.25 11.1104 9.31267 10.673 10.188 9.79835C11.0633 8.92369 11.5007 7.86102 11.5 6.61035C11.4993 5.35968 11.062 4.29735 10.188 3.42335C9.314 2.54935 8.25133 2.11168 7 2.11035C5.74867 2.10902 4.68633 2.54669 3.813 3.42335C2.93967 4.30002 2.502 5.36235 2.5 6.61035C2.498 7.85835 2.93567 8.92102 3.813 9.79835C4.69033 10.6757 5.75267 11.113 7 11.1104Z" fill="#ADADAD"/>
</svg>
