<svg width="26" height="25" viewBox="0 0 26 25" fill="none" xmlns="http://www.w3.org/2000/svg">
<path d="M8.40624 19.5363L13 16.7655L17.5937 19.5728L16.3906 14.3228L20.4375 10.8228L15.1146 10.3488L13 5.39046L10.8854 10.3123L5.56249 10.7863L9.60937 14.3228L8.40624 19.5363ZM13 20.1925L6.94791 23.8384C6.68055 24.0085 6.40103 24.0814 6.10937 24.0571C5.8177 24.0328 5.56249 23.9356 5.34374 23.7655C5.12499 23.5953 4.95485 23.3829 4.83332 23.1282C4.7118 22.8734 4.68749 22.5876 4.76041 22.2707L6.36457 15.38L1.0052 10.7498C0.762144 10.5311 0.610478 10.2817 0.5502 10.0017C0.489922 9.72171 0.507908 9.44852 0.604158 9.18213C0.700408 8.91574 0.846241 8.69699 1.04166 8.52588C1.23707 8.35477 1.50444 8.24539 1.84374 8.19775L8.91666 7.57796L11.651 1.08838C11.7726 0.796712 11.9612 0.577962 12.2169 0.432129C12.4726 0.286295 12.7336 0.213379 13 0.213379C13.2664 0.213379 13.5274 0.286295 13.7831 0.432129C14.0388 0.577962 14.2274 0.796712 14.349 1.08838L17.0833 7.57796L24.1562 8.19775C24.4965 8.24637 24.7639 8.35574 24.9583 8.52588C25.1528 8.69602 25.2986 8.91477 25.3958 9.18213C25.493 9.44949 25.5115 9.72317 25.4512 10.0032C25.391 10.2832 25.2388 10.5321 24.9948 10.7498L19.6354 15.38L21.2396 22.2707C21.3125 22.5866 21.2882 22.8725 21.1667 23.1282C21.0451 23.3839 20.875 23.5963 20.6562 23.7655C20.4375 23.9346 20.1823 24.0318 19.8906 24.0571C19.599 24.0824 19.3194 24.0095 19.0521 23.8384L13 20.1925Z" fill="#ADADAD"/>
</svg>
