<svg width="7" height="16" viewBox="0 0 7 16" fill="none" xmlns="http://www.w3.org/2000/svg">
<path d="M6.29246 14.9272C6.38516 14.8025 6.45871 14.6543 6.50889 14.4912C6.55907 14.3281 6.5849 14.1532 6.5849 13.9767C6.5849 13.8001 6.55907 13.6253 6.50889 13.4622C6.45871 13.2991 6.38516 13.1509 6.29246 13.0262L2.41246 7.795L6.29246 2.56383C6.47943 2.31174 6.58448 1.96983 6.58448 1.61333C6.58448 1.25681 6.47943 0.914905 6.29246 0.662814C6.10548 0.410724 5.85188 0.269103 5.58746 0.269103C5.32303 0.269103 5.06943 0.410724 4.88246 0.662814L0.292456 6.85123C0.199752 6.97596 0.126204 7.12412 0.0760231 7.28722C0.0258417 7.45032 1.23978e-05 7.62516 1.23978e-05 7.80174C1.23978e-05 7.97832 0.0258417 8.15316 0.0760231 8.31626C0.126204 8.47936 0.199752 8.62752 0.292456 8.75225L4.88246 14.9407C5.26246 15.453 5.90246 15.453 6.29246 14.9272Z" fill="#353E4B"/>
</svg>
