<svg width="16" height="19" viewBox="0 0 16 19" fill="none" xmlns="http://www.w3.org/2000/svg">
<path d="M2 16.1104H5V11.1104C5 10.827 5.096 10.5897 5.288 10.3984C5.48 10.207 5.71733 10.111 6 10.1104H10C10.2833 10.1104 10.521 10.2064 10.713 10.3984C10.905 10.5904 11.0007 10.8277 11 11.1104V16.1104H14V7.11035L8 2.61035L2 7.11035V16.1104ZM0 16.1104V7.11035C0 6.79368 0.0709998 6.49369 0.213 6.21035C0.355 5.92702 0.550667 5.69368 0.8 5.51035L6.8 1.01035C7.15 0.743685 7.55 0.610352 8 0.610352C8.45 0.610352 8.85 0.743685 9.2 1.01035L15.2 5.51035C15.45 5.69368 15.646 5.92702 15.788 6.21035C15.93 6.49369 16.0007 6.79368 16 7.11035V16.1104C16 16.6604 15.804 17.1314 15.412 17.5234C15.02 17.9154 14.5493 18.111 14 18.1104H10C9.71667 18.1104 9.47933 18.0144 9.288 17.8224C9.09667 17.6304 9.00067 17.393 9 17.1104V12.1104H7V17.1104C7 17.3937 6.904 17.6314 6.712 17.8234C6.52 18.0154 6.28267 18.111 6 18.1104H2C1.45 18.1104 0.979333 17.9147 0.588 17.5234C0.196666 17.132 0.000666667 16.661 0 16.1104Z" fill="#ADADAD"/>
</svg>
