<svg width="25" height="25" viewBox="0 0 25 25" fill="none" xmlns="http://www.w3.org/2000/svg">
<path d="M6.5 19.1104H9.5V14.1104C9.5 13.827 9.596 13.5897 9.788 13.3984C9.98 13.207 10.2173 13.111 10.5 13.1104H14.5C14.7833 13.1104 15.021 13.2064 15.213 13.3984C15.405 13.5904 15.5007 13.8277 15.5 14.1104V19.1104H18.5V10.1104L12.5 5.61035L6.5 10.1104V19.1104ZM4.5 19.1104V10.1104C4.5 9.79368 4.571 9.49369 4.713 9.21035C4.855 8.92702 5.05067 8.69368 5.3 8.51035L11.3 4.01035C11.65 3.74368 12.05 3.61035 12.5 3.61035C12.95 3.61035 13.35 3.74368 13.7 4.01035L19.7 8.51035C19.95 8.69368 20.146 8.92702 20.288 9.21035C20.43 9.49369 20.5007 9.79368 20.5 10.1104V19.1104C20.5 19.6604 20.304 20.1314 19.912 20.5234C19.52 20.9154 19.0493 21.111 18.5 21.1104H14.5C14.2167 21.1104 13.9793 21.0144 13.788 20.8224C13.5967 20.6304 13.5007 20.393 13.5 20.1104V15.1104H11.5V20.1104C11.5 20.3937 11.404 20.6314 11.212 20.8234C11.02 21.0154 10.7827 21.111 10.5 21.1104H6.5C5.95 21.1104 5.47933 20.9147 5.088 20.5234C4.69667 20.132 4.50067 19.661 4.5 19.1104Z" fill="#ADADAD"/>
</svg>
