<svg width="21" height="20" viewBox="0 0 21 20" fill="none" xmlns="http://www.w3.org/2000/svg">
<path d="M7.5 4.74935V18.6104M13.5 1.11035V15.1104M1.5 6.82035C1.5 5.34635 1.5 4.61035 1.893 4.18035C2.03209 4.02738 2.20129 3.90482 2.39 3.82035C2.922 3.58435 3.621 3.81735 5.019 4.28335C6.086 4.63935 6.619 4.81735 7.159 4.79835C7.3571 4.79184 7.55406 4.76571 7.747 4.72035C8.272 4.59535 8.74 4.28335 9.676 3.66035L11.058 2.73835C12.258 1.93835 12.857 1.53835 13.545 1.44735C14.233 1.35435 14.917 1.58235 16.284 2.03835L17.449 2.42635C18.439 2.75635 18.934 2.92135 19.217 3.31435C19.5 3.70735 19.5 4.23035 19.5 5.27235V13.4014C19.5 14.8744 19.5 15.6114 19.107 16.0414C18.9677 16.1936 18.7985 16.3155 18.61 16.3994C18.078 16.6364 17.379 16.4034 15.981 15.9374C14.914 15.5814 14.381 15.4034 13.841 15.4224C13.6429 15.4289 13.4459 15.455 13.253 15.5004C12.728 15.6254 12.26 15.9374 11.324 16.5604L9.942 17.4824C8.742 18.2824 8.143 18.6824 7.455 18.7734C6.767 18.8664 6.083 18.6384 4.716 18.1824L3.551 17.7944C2.561 17.4644 2.066 17.2994 1.783 16.9064C1.5 16.5134 1.5 15.9904 1.5 14.9484V6.82035Z" stroke="#9334E9" stroke-width="1.5"/>
</svg>
