<svg width="17" height="17" viewBox="0 0 17 17" fill="none" xmlns="http://www.w3.org/2000/svg">
<path d="M8.50007 1.21436C11.3503 1.21436 13.6608 3.33936 13.6608 6.98221C13.6608 8.42843 12.8475 10.2092 11.8667 11.8315L11.7018 12.1001C11.6462 12.1892 11.5904 12.2776 11.5346 12.3654L11.3652 12.6268L11.2802 12.7558L11.1099 13.0105L10.939 13.2595L10.769 13.5032L10.6002 13.7406L10.4332 13.9713L10.2687 14.1945L10.1075 14.41L9.94993 14.617L9.72255 14.9115L9.50762 15.1841L9.30727 15.4336L9.24443 15.5114C8.83339 15.9983 8.14337 15.9789 7.75602 15.5114L7.56112 15.2703L7.35105 15.005L7.20321 14.8159L7.05052 14.6173L6.81282 14.3034L6.6498 14.084L6.48405 13.8572L6.31618 13.6231L6.14648 13.3827L5.97587 13.1362L5.80527 12.8842C5.7486 12.7992 5.69193 12.7135 5.63527 12.6271L5.46587 12.3661L5.29861 12.1004L5.13377 11.8318C4.15262 10.2092 3.33936 8.42843 3.33936 6.98221C3.33936 3.33936 5.64984 1.21436 8.50007 1.21436ZM8.50007 2.42864C6.18625 2.42864 4.55364 4.15353 4.55364 6.98221C4.55364 7.99766 5.08368 9.35371 5.95311 10.8518L6.1058 11.1099L6.26457 11.3706L6.42971 11.6338L6.51441 11.7662L6.68836 12.0321L6.86807 12.3002L7.05325 12.5697L7.24359 12.8405L7.43909 13.1125L7.53866 13.2491L7.74144 13.5224L7.92511 13.7649L8.01982 13.8879C8.07656 13.9612 8.14933 14.0205 8.23255 14.0613C8.31577 14.1021 8.40723 14.1233 8.49992 14.1233C8.59261 14.1233 8.68407 14.1021 8.76729 14.0613C8.85051 14.0205 8.92328 13.9612 8.98002 13.8879L9.15244 13.6632L9.35766 13.3888L9.55832 13.1156L9.75412 12.8433L9.94507 12.5719L10.1302 12.302C10.1914 12.2123 10.2514 12.1229 10.3103 12.0336L10.4845 11.7674C10.6274 11.546 10.7638 11.327 10.8937 11.1105L11.0461 10.8524C11.9168 9.35311 12.4465 7.99705 12.4465 6.98221C12.4465 4.15353 10.8139 2.42864 8.50007 2.42864ZM8.50007 3.9465C9.14417 3.9465 9.76188 4.20236 10.2173 4.65781C10.6728 5.11326 10.9286 5.73097 10.9286 6.37507C10.9286 7.01917 10.6728 7.63688 10.2173 8.09233C9.76188 8.54777 9.14417 8.80364 8.50007 8.80364C7.85597 8.80364 7.23826 8.54777 6.78281 8.09233C6.32736 7.63688 6.0715 7.01917 6.0715 6.37507C6.0715 5.73097 6.32736 5.11326 6.78281 4.65781C7.23826 4.20236 7.85597 3.9465 8.50007 3.9465ZM8.50007 5.16078C8.17802 5.16078 7.86916 5.28872 7.64144 5.51644C7.41372 5.74416 7.28578 6.05302 7.28578 6.37507C7.28578 6.69712 7.41372 7.00598 7.64144 7.2337C7.86916 7.46142 8.17802 7.58936 8.50007 7.58936C8.82212 7.58936 9.13098 7.46142 9.3587 7.2337C9.58642 7.00598 9.71436 6.69712 9.71436 6.37507C9.71436 6.05302 9.58642 5.74416 9.3587 5.51644C9.13098 5.28872 8.82212 5.16078 8.50007 5.16078Z" fill="#5D6673"/>
</svg>
