<svg width="22" height="23" viewBox="0 0 22 23" fill="none" xmlns="http://www.w3.org/2000/svg">
<path fill-rule="evenodd" clip-rule="evenodd" d="M15 8.11035C15 9.17122 14.5786 10.1886 13.8284 10.9388C13.0783 11.6889 12.0609 12.1104 11 12.1104C9.93913 12.1104 8.92172 11.6889 8.17157 10.9388C7.42143 10.1886 7 9.17122 7 8.11035C7 7.04949 7.42143 6.03207 8.17157 5.28192C8.92172 4.53178 9.93913 4.11035 11 4.11035C12.0609 4.11035 13.0783 4.53178 13.8284 5.28192C14.5786 6.03207 15 7.04949 15 8.11035ZM13 8.11035C13 8.64078 12.7893 9.14949 12.4142 9.52456C12.0391 9.89964 11.5304 10.1104 11 10.1104C10.4696 10.1104 9.96086 9.89964 9.58579 9.52456C9.21071 9.14949 9 8.64078 9 8.11035C9 7.57992 9.21071 7.07121 9.58579 6.69614C9.96086 6.32107 10.4696 6.11035 11 6.11035C11.5304 6.11035 12.0391 6.32107 12.4142 6.69614C12.7893 7.07121 13 7.57992 13 8.11035Z" fill="#ADADAD"/>
<path fill-rule="evenodd" clip-rule="evenodd" d="M11 0.110352C4.925 0.110352 0 5.03535 0 11.1104C0 17.1854 4.925 22.1104 11 22.1104C17.075 22.1104 22 17.1854 22 11.1104C22 5.03535 17.075 0.110352 11 0.110352ZM2 11.1104C2 13.2004 2.713 15.1244 3.908 16.6524C4.74744 15.5505 5.83015 14.6575 7.07164 14.0431C8.31312 13.4287 9.6798 13.1095 11.065 13.1104C12.4324 13.1088 13.7821 13.4194 15.0111 14.0187C16.2402 14.618 17.3162 15.4901 18.157 16.5684C19.0234 15.432 19.6068 14.1056 19.8589 12.6989C20.111 11.2923 20.0244 9.84589 19.6065 8.47934C19.1886 7.11279 18.4512 5.8654 17.4555 4.84039C16.4598 3.81538 15.2343 3.04221 13.8804 2.58486C12.5265 2.12751 11.0832 1.99912 9.66986 2.21032C8.25652 2.42153 6.91379 2.96624 5.75277 3.79941C4.59175 4.63257 3.64581 5.73022 2.99323 7.00155C2.34065 8.27287 2.00018 9.68132 2 11.1104ZM11 20.1104C8.93391 20.1137 6.93014 19.4029 5.328 18.0984C5.97281 17.175 6.83119 16.4211 7.83008 15.9008C8.82896 15.3806 9.93876 15.1094 11.065 15.1104C12.1772 15.1094 13.2735 15.3738 14.263 15.8817C15.2524 16.3895 16.1064 17.1261 16.754 18.0304C15.1395 19.3774 13.1026 20.1136 11 20.1104Z" fill="#ADADAD"/>
</svg>
