<svg width="15" height="16" viewBox="0 0 15 16" fill="none" xmlns="http://www.w3.org/2000/svg">
<path d="M7.5 1L1.875 3V9C1.875 12.3141 4.39307 15 7.5 15C10.6069 15 13.125 12.3141 13.125 9V3L7.5 1ZM12.0703 9C12.0703 11.6922 10.0239 13.875 7.5 13.875C4.97607 13.875 2.92969 11.6922 2.92969 9V3.84375L7.5 2.125L12.0703 3.84375V9Z" fill="#17A34A"/>
<path d="M5.5431 7.42344C5.49422 7.37106 5.43613 7.32951 5.37215 7.30115C5.30818 7.27279 5.23958 7.25819 5.1703 7.25819C5.10102 7.25819 5.03242 7.27279 4.96844 7.30115C4.90447 7.32951 4.84637 7.37106 4.7975 7.42344C4.7484 7.47557 4.70943 7.53754 4.68285 7.60578C4.65626 7.67402 4.64258 7.7472 4.64258 7.82109C4.64258 7.89499 4.65626 7.96816 4.68285 8.03641C4.70943 8.10465 4.7484 8.16662 4.7975 8.21875L6.693 10.2406L6.72377 10.2734C6.77 10.3228 6.82491 10.362 6.88536 10.3888C6.94581 10.4155 7.01062 10.4293 7.07606 10.4293C7.1415 10.4293 7.20631 10.4155 7.26676 10.3888C7.32721 10.362 7.38212 10.3228 7.42836 10.2734L10.7023 6.78125C10.7486 6.73194 10.7853 6.67336 10.8104 6.60888C10.8355 6.5444 10.8484 6.47528 10.8484 6.40547C10.8484 6.33566 10.8355 6.26654 10.8104 6.20206C10.7853 6.13758 10.7486 6.079 10.7023 6.02969L10.6613 5.98594C10.615 5.93653 10.5601 5.89733 10.4997 5.87059C10.4392 5.84384 10.3744 5.83008 10.309 5.83008C10.2435 5.83008 10.1787 5.84384 10.1183 5.87059C10.0578 5.89733 10.0029 5.93653 9.95668 5.98594L7.07533 9.05781L5.5431 7.42344Z" fill="#17A34A"/>
</svg>
