<svg width="36" height="35" viewBox="0 0 36 35" fill="none" xmlns="http://www.w3.org/2000/svg">
<path d="M13.4062 24.5363L18 21.7655L22.5937 24.5728L21.3906 19.3228L25.4375 15.8228L20.1146 15.3488L18 10.3905L15.8854 15.3123L10.5625 15.7863L14.6094 19.3228L13.4062 24.5363ZM18 25.1925L11.9479 28.8384C11.6805 29.0085 11.401 29.0814 11.1094 29.0571C10.8177 29.0328 10.5625 28.9356 10.3437 28.7655C10.125 28.5953 9.95485 28.3829 9.83332 28.1282C9.7118 27.8734 9.68749 27.5876 9.76041 27.2707L11.3646 20.38L6.0052 15.7498C5.76214 15.5311 5.61048 15.2817 5.5502 15.0017C5.48992 14.7217 5.50791 14.4485 5.60416 14.1821C5.70041 13.9157 5.84624 13.697 6.04166 13.5259C6.23707 13.3548 6.50444 13.2454 6.84374 13.1978L13.9167 12.578L16.651 6.08838C16.7726 5.79671 16.9612 5.57796 17.2169 5.43213C17.4726 5.2863 17.7336 5.21338 18 5.21338C18.2664 5.21338 18.5274 5.2863 18.7831 5.43213C19.0388 5.57796 19.2274 5.79671 19.349 6.08838L22.0833 12.578L29.1562 13.1978C29.4965 13.2464 29.7639 13.3557 29.9583 13.5259C30.1528 13.696 30.2986 13.9148 30.3958 14.1821C30.493 14.4495 30.5115 14.7232 30.4512 15.0032C30.391 15.2832 30.2388 15.5321 29.9948 15.7498L24.6354 20.38L26.2396 27.2707C26.3125 27.5866 26.2882 27.8725 26.1667 28.1282C26.0451 28.3839 25.875 28.5963 25.6562 28.7655C25.4375 28.9346 25.1823 29.0318 24.8906 29.0571C24.599 29.0824 24.3194 29.0095 24.0521 28.8384L18 25.1925Z" fill="#FACC14"/>
<path d="M18.5 23.1276L13.9625 25.8676C13.8292 25.9334 13.7054 25.9601 13.5913 25.9476C13.4779 25.9342 13.3675 25.8951 13.26 25.8301C13.1517 25.7634 13.07 25.6692 13.015 25.5476C12.96 25.4259 12.955 25.293 13 25.1488L14.2075 20.0113L10.2138 16.5488C10.1013 16.4572 10.0271 16.3476 9.99125 16.2201C9.95542 16.0926 9.96333 15.9705 10.015 15.8538C10.0667 15.7372 10.1354 15.6413 10.2213 15.5663C10.3079 15.4938 10.4246 15.4447 10.5713 15.4188L15.8413 14.9588L17.8963 10.0938C17.9529 9.95633 18.0346 9.85716 18.1413 9.79633C18.2479 9.73549 18.3675 9.70508 18.5 9.70508C18.6325 9.70508 18.7525 9.73549 18.86 9.79633C18.9675 9.85716 19.0487 9.95633 19.1038 10.0938L21.1588 14.9588L26.4275 15.4188C26.575 15.4438 26.6921 15.4934 26.7787 15.5676C26.8654 15.6409 26.9346 15.7363 26.9862 15.8538C27.0371 15.9705 27.0446 16.0926 27.0087 16.2201C26.9729 16.3476 26.8988 16.4572 26.7863 16.5488L22.7925 20.0113L24 25.1488C24.0467 25.2913 24.0421 25.4238 23.9862 25.5463C23.9304 25.6688 23.8483 25.763 23.74 25.8288C23.6333 25.8955 23.5229 25.9351 23.4088 25.9476C23.2954 25.9601 23.1721 25.9334 23.0387 25.8676L18.5 23.1276Z" fill="#FACC14"/>
</svg>
