<svg width="36" height="35" viewBox="0 0 36 35" fill="none" xmlns="http://www.w3.org/2000/svg">
<path d="M13.4062 24.5363L18 21.7655L22.5937 24.5728L21.3906 19.3228L25.4375 15.8228L20.1146 15.3488L18 10.3905L15.8854 15.3123L10.5625 15.7863L14.6094 19.3228L13.4062 24.5363ZM18 25.1925L11.9479 28.8384C11.6805 29.0085 11.401 29.0814 11.1094 29.0571C10.8177 29.0328 10.5625 28.9356 10.3437 28.7655C10.125 28.5953 9.95485 28.3829 9.83332 28.1282C9.7118 27.8734 9.68749 27.5876 9.76041 27.2707L11.3646 20.38L6.0052 15.7498C5.76214 15.5311 5.61048 15.2817 5.5502 15.0017C5.48992 14.7217 5.50791 14.4485 5.60416 14.1821C5.70041 13.9157 5.84624 13.697 6.04166 13.5259C6.23707 13.3548 6.50444 13.2454 6.84374 13.1978L13.9167 12.578L16.651 6.08838C16.7726 5.79671 16.9612 5.57796 17.2169 5.43213C17.4726 5.2863 17.7336 5.21338 18 5.21338C18.2664 5.21338 18.5274 5.2863 18.7831 5.43213C19.0388 5.57796 19.2274 5.79671 19.349 6.08838L22.0833 12.578L29.1562 13.1978C29.4965 13.2464 29.7639 13.3557 29.9583 13.5259C30.1528 13.696 30.2986 13.9148 30.3958 14.1821C30.493 14.4495 30.5115 14.7232 30.4512 15.0032C30.391 15.2832 30.2388 15.5321 29.9948 15.7498L24.6354 20.38L26.2396 27.2707C26.3125 27.5866 26.2882 27.8725 26.1667 28.1282C26.0451 28.3839 25.875 28.5963 25.6562 28.7655C25.4375 28.9346 25.1823 29.0318 24.8906 29.0571C24.599 29.0824 24.3194 29.0095 24.0521 28.8384L18 25.1925Z" fill="#ADADAD"/>
</svg>
