<svg width="18" height="18" viewBox="0 0 18 18" fill="none" xmlns="http://www.w3.org/2000/svg">
<path d="M6.5 13.1104C4.68333 13.1104 3.146 12.481 1.888 11.2224C0.63 9.96369 0.000667196 8.42635 5.29101e-07 6.61035C-0.000666138 4.79435 0.628667 3.25702 1.888 1.99835C3.14733 0.739685 4.68467 0.110352 6.5 0.110352C8.31533 0.110352 9.853 0.739685 11.113 1.99835C12.373 3.25702 13.002 4.79435 13 6.61035C13 7.34369 12.8833 8.03535 12.65 8.68535C12.4167 9.33535 12.1 9.91035 11.7 10.4104L17.3 16.0104C17.4833 16.1937 17.575 16.427 17.575 16.7104C17.575 16.9937 17.4833 17.227 17.3 17.4104C17.1167 17.5937 16.8833 17.6854 16.6 17.6854C16.3167 17.6854 16.0833 17.5937 15.9 17.4104L10.3 11.8104C9.8 12.2104 9.225 12.527 8.575 12.7604C7.925 12.9937 7.23333 13.1104 6.5 13.1104ZM6.5 11.1104C7.75 11.1104 8.81267 10.673 9.688 9.79835C10.5633 8.92369 11.0007 7.86102 11 6.61035C10.9993 5.35968 10.562 4.29735 9.688 3.42335C8.814 2.54935 7.75133 2.11168 6.5 2.11035C5.24867 2.10902 4.18633 2.54669 3.313 3.42335C2.43967 4.30002 2.002 5.36235 2 6.61035C1.998 7.85835 2.43567 8.92102 3.313 9.79835C4.19033 10.6757 5.25267 11.113 6.5 11.1104Z" fill="#9334E9"/>
</svg>
